<?xml version="1.0" encoding="UTF-8" standalone="no"?>
<svg
   version="1.1"
   x="0px"
   y="0px"
   viewBox="0 0 100 100"
   enable-background="new 0 0 100 100"
   xml:space="preserve"
   id="svg3"
   sodipodi:docname="fox.svg"
   inkscape:version="1.4.2 (ebf0e940, 2025-05-08)"
   width="100"
   height="100"
   inkscape:export-filename="fox.png"
   inkscape:export-xdpi="983.03998"
   inkscape:export-ydpi="983.03998"
   xmlns:inkscape="http://www.inkscape.org/namespaces/inkscape"
   xmlns:sodipodi="http://sodipodi.sourceforge.net/DTD/sodipodi-0.dtd"
   xmlns="http://www.w3.org/2000/svg"
   xmlns:svg="http://www.w3.org/2000/svg"><defs
     id="defs3" /><sodipodi:namedview
     id="namedview3"
     pagecolor="#ffffff"
     bordercolor="#000000"
     borderopacity="0.25"
     inkscape:showpageshadow="2"
     inkscape:pageopacity="0.0"
     inkscape:pagecheckerboard="true"
     inkscape:deskcolor="#d1d1d1"
     inkscape:zoom="5.7077659"
     inkscape:cx="50.63277"
     inkscape:cy="52.297169"
     inkscape:window-width="1456"
     inkscape:window-height="874"
     inkscape:window-x="7"
     inkscape:window-y="46"
     inkscape:window-maximized="0"
     inkscape:current-layer="svg3"
     showborder="true"
     inkscape:clip-to-page="true" /><path
     d="m 21.41985,69.337334 c 2.969,1.037 6.297,1.11 9.357,0.481 6.211,-1.278 11.106,-3.323 15.11,-5.716 1.058,-0.633 1.768,-1.707 1.938,-2.928 0.611,-4.398 1.71,-15.272 -1.543,-19.773 -2.166,-2.998 -5.226,-4.682 -8.814,-5.394 -2.928,-0.58 -5.61,-1.144 -8.14,-2.546 -0.529,-0.293 -0.341,-1.096 0.263,-1.109 3.124,-0.068 6.254,-0.113 9.337,0.359 3.719,0.57 7.427,1.964 10.086,4.625 0.323,-1.098 0.384,-2.272 0.185,-3.399 -0.064,-0.361 0.35,-0.611 0.642,-0.389 1.703,1.296 2.931,3.19 3.671,5.212 0.862,2.357 1.114,4.893 1.192,7.401 0.636,-0.533 1.181,-1.175 1.608,-1.887 0.22,-0.368 0.771,-0.296 0.861,0.123 0.146,0.681 0.332,1.372 0.367,1.817 0.103,1.334 0.117,2.675 0.041,4.011 -0.138,2.421 -0.566,4.84 -1.216,7.175 0,0 9.875,-12.5 4.917,-25.583 -4.958,-13.083 -16.5,-20.083 -16.5,-20.083 0,0 -3.875,-4.9999998 -5.583,-4.9999998 -1.708,0 -0.917,9.8319998 -0.917,9.8339998 0.062,0.776 -1.752,2.349 -2.228,2.933 -1.072,1.316 -2.253,2.544 -3.524,3.669 -2.957,2.616 -6.304,4.253 -9.778,6.037 -0.378,0.194 -0.794,0.434 -0.898,0.845 -0.083,0.326 0.059,0.665 0.217,0.962 2.696,5.053 10.406,6.622 15.545,6.804 0.337,0.012 -0.099,1.922 -0.135,2.03 -0.769,2.349 -2.723,4.017 -4.523,5.563 -4.335,3.724 -9.457,6.569 -13.178,10.98 -1.214,1.439 -2.27,3.059 -2.75,4.879 -0.48,1.82 -0.327,3.867 0.72,5.431 0.852,1.274 2.222,2.131 3.67,2.636 z m 15.195,-43.685 c 1.105,0 2,0.485 2,1.083 0,0.598 -0.895,1.083 -2,1.083 -1.105,0 -2,-0.485 -2,-1.083 0,-0.598 0.896,-1.083 2,-1.083 z"
     id="path1"
     style="fill:#333333;fill-opacity:1" /><path
     d="m 86.03285,76.402334 c 0,-9.087 -6.891,-15.884 -15.864,-16.244 -1.427,-0.057 -2.858,0.03 -4.27,0.246 -5.878,0.899 -11.133,3.928 -16.231,6.814 -5.267,2.981 -10.465,5.697 -16.429,7.031 -5.418,1.212 -11.328,1.61 -15.788,-2.275 -0.674,-0.587 -1.288,-1.243 -1.828,-1.956 -0.262,-0.346 -0.783,-1.525 -1.371,-1.401 -0.406,0.088 -0.286,1.232 -0.25,1.767 0.529,7.758 3.485,15.942 10.53,20.026 3.796,2.2 8.286,3.118 12.661,2.791 8.599,-0.642 16.598,-5.358 24.726,-7.912 4.361,-1.371 8.898,-2.574 13.446,-1.304 4.692,1.311 4.866,4.864 4.349,7.319 -0.142,0.674 0.697,1.116 1.154,0.6 5.641,-6.37 5.165,-15.502 5.165,-15.502 z m -14.644,-5.289 c -2.479,-0.116 -4.969,0.168 -7.385,0.764 -2.429,0.573 -4.795,1.469 -7.162,2.433 -2.362,0.982 -4.716,2.07 -7.174,2.986 2.047,-1.634 4.198,-3.107 6.497,-4.386 2.294,-1.283 4.763,-2.319 7.369,-2.977 2.614,-0.609 5.354,-0.83 8.029,-0.372 2.665,0.438 5.222,1.563 7.18,3.319 -2.404,-1.043 -4.874,-1.636 -7.354,-1.767 z"
     id="path2"
     style="fill:#0f88cd;fill-opacity:1" /></svg>
